# xmcd
#
# Track frame offsets:
#	150
#	20579
#	38404
#	55533
#	78322
#	99217
#	135485
#	165129
#	190734
#	217625
#	250109
#	285923
#	305657
#	319821
#
# Disc length: 4782 seconds
#
# Revision: 1
# Processed by: cddbd v1.4PL0 Copyright (c) Steve Scherf et al.
# Submitted via: audiograbber 1.81.00
#
DISCID=9c12ac0e
DTITLE=Mean Town - Live at the Rendezvous Oct. 19, 2001
DYEAR=2001
DGENRE=Blues
TTITLE0=Mean Town - Start It Up
TTITLE1=Mean Town - Pawnshop
TTITLE2=Mean Town - Sidetracked
TTITLE3=Mean Town - Help Me
TTITLE4=Mean Town - Wind Cries Mary
TTITLE5=Mean Town - Mean Town Blues
TTITLE6=Mean Town - Red House
TTITLE7=Mean Town - Little Wing
TTITLE8=Mean Town - Voodoo Chile (Slight Return)
TTITLE9=Mean Town - Black Cat Bone
TTITLE10=Mean Town - 30 Days
TTITLE11=Mean Town - Too Much Stuff
TTITLE12=Mean Town - Born In Chicago
TTITLE13=Mean Town - Hoochie Koochie Man
EXTD=
EXTT0=
EXTT1=
EXTT2=
EXTT3=
EXTT4=
EXTT5=
EXTT6=
EXTT7=
EXTT8=
EXTT9=
EXTT10=
EXTT11=
EXTT12=
EXTT13=
PLAYORDER=
